<svg width="22" height="26" viewBox="0 0 22 26" fill="none" xmlns="http://www.w3.org/2000/svg">
<ellipse cx="20.3572" cy="23.8572" rx="1.14286" ry="1.14286" fill="#DD0034"/>
<path fill-rule="evenodd" clip-rule="evenodd" d="M0.5 0.285706L21.0714 0.285706L21.0714 18.7143C21.0714 19.1088 20.7516 19.4286 20.3571 19.4286C19.9627 19.4286 19.6429 19.1088 19.6429 18.7143L19.6429 1.71428L1.92857 1.71428L1.92857 23.7143L17.2143 23.7143C17.6088 23.7143 17.9286 24.0341 17.9286 24.4286C17.9286 24.8231 17.6088 25.1428 17.2143 25.1428L0.5 25.1428L0.5 0.285706Z" fill="#3D3D3D"/>
<path fill-rule="evenodd" clip-rule="evenodd" d="M6.07143 5.99999C6.07143 5.6055 6.39122 5.28571 6.78571 5.28571L15.0714 5.28571C15.4659 5.28571 15.7857 5.6055 15.7857 5.99999C15.7857 6.39448 15.4659 6.71428 15.0714 6.71428L6.78571 6.71428C6.39122 6.71428 6.07143 6.39448 6.07143 5.99999Z" fill="#3D3D3D"/>
<path fill-rule="evenodd" clip-rule="evenodd" d="M6.07143 9.42856C6.07143 9.03407 6.39122 8.71428 6.78571 8.71428L15.0714 8.71428C15.4659 8.71428 15.7857 9.03407 15.7857 9.42856C15.7857 9.82305 15.4659 10.1428 15.0714 10.1428L6.78571 10.1428C6.39122 10.1428 6.07143 9.82305 6.07143 9.42856Z" fill="#3D3D3D"/>
<path fill-rule="evenodd" clip-rule="evenodd" d="M6.07143 12.8571C6.07143 12.4626 6.39122 12.1428 6.78571 12.1428L11.0714 12.1428C11.4659 12.1428 11.7857 12.4626 11.7857 12.8571C11.7857 13.2516 11.4659 13.5714 11.0714 13.5714L6.78571 13.5714C6.39122 13.5714 6.07143 13.2516 6.07143 12.8571Z" fill="#3D3D3D"/>
</svg>
