<svg width="28" height="24" viewBox="0 0 28 24" fill="none" xmlns="http://www.w3.org/2000/svg">
<g clip-path="url(#clip0_9123_15198)">
<path fill-rule="evenodd" clip-rule="evenodd" d="M20.8387 0.144226H7.63672V6.71542L20.8387 6.81893V0.144226ZM19.4102 1.5728V5.37911L9.0653 5.298V1.5728H19.4102Z" fill="#3D3D3D"/>
<path fill-rule="evenodd" clip-rule="evenodd" d="M27.5162 15.5445H17.6995V23.8549H27.5162V15.5445ZM26.0877 16.9731V22.4263H19.1281V16.9731H26.0877Z" fill="#3D3D3D"/>
<path fill-rule="evenodd" clip-rule="evenodd" d="M10.7716 15.5445H0.912372V19.7454C0.912372 20.1399 1.23217 20.4597 1.62666 20.4597C2.02115 20.4597 2.34094 20.1399 2.34094 19.7454V16.9731H9.34304V22.4263H6.62321C6.22872 22.4263 5.90892 22.7461 5.90892 23.1406C5.90892 23.5351 6.22872 23.8549 6.62321 23.8549H10.7716V15.5445Z" fill="#3D3D3D"/>
<path fill-rule="evenodd" clip-rule="evenodd" d="M23.1951 10.4101L5.18909 10.5264V16.2043C5.18909 16.5988 5.50888 16.9186 5.90337 16.9186C6.29786 16.9186 6.61766 16.5988 6.61766 16.2043V11.9458L21.7665 11.8479V16.2043C21.7665 16.5988 22.0863 16.9186 22.4808 16.9186C22.8753 16.9186 23.1951 16.5988 23.1951 16.2043V10.4101Z" fill="#3D3D3D"/>
<path fill-rule="evenodd" clip-rule="evenodd" d="M14.259 5.47705C13.8645 5.47705 13.5447 5.79685 13.5447 6.19134V10.5964C13.5447 10.9909 13.8645 11.3107 14.259 11.3107C14.6535 11.3107 14.9733 10.9909 14.9733 10.5964V6.19134C14.9733 5.79685 14.6535 5.47705 14.259 5.47705Z" fill="#3D3D3D"/>
<path d="M1.67899 23.9926C1.22057 23.9926 0.848944 23.6132 0.848944 23.1452C0.848944 22.6772 1.22057 22.2978 1.67899 22.2978C2.13741 22.2978 2.50903 22.6772 2.50903 23.1452C2.50903 23.6132 2.13741 23.9926 1.67899 23.9926Z" fill="#DD0034"/>
</g>
<defs>
<clipPath id="clip0_9123_15198">
<rect width="26.8571" height="24" fill="white" transform="matrix(-1 0 0 1 27.6428 0)"/>
</clipPath>
</defs>
</svg>
