<svg width="32" height="32" viewBox="0 0 32 32" fill="none" xmlns="http://www.w3.org/2000/svg">
<path fill-rule="evenodd" clip-rule="evenodd" d="M5.85231 9.07449C4.18989 11.5104 3.45917 14.463 3.7936 17.3932C4.12803 20.3233 5.5053 23.0353 7.67387 25.034C8.25215 25.5669 8.87641 26.0397 9.5369 26.4482C9.56871 24.7026 10.276 23.0352 11.5128 21.7984C12.7787 20.5325 14.4956 19.8214 16.2858 19.8214C18.076 19.8214 19.7929 20.5325 21.0587 21.7984C22.2092 22.9489 22.9015 24.4719 23.0182 26.0839C23.2606 25.9151 23.4976 25.7372 23.7286 25.5502C24.0353 25.3021 24.4851 25.3495 24.7332 25.6561C24.9814 25.9628 24.934 26.4126 24.6273 26.6607C22.0683 28.7317 18.8496 29.813 15.5593 29.7071C12.2689 29.6013 9.12644 28.3155 6.70571 26.0844C4.28498 23.8534 2.74756 20.826 2.37424 17.5552C2.00093 14.2843 2.81661 10.9884 4.67234 8.26921C6.52806 5.55004 9.29999 3.58913 12.4819 2.74461C15.6637 1.90008 19.0432 2.2283 22.0032 3.66931C24.9631 5.11032 27.3059 7.56797 28.6037 10.5934C29.9015 13.6188 30.0677 17.0102 29.072 20.148C28.9527 20.524 28.5511 20.7321 28.1751 20.6128C27.7991 20.4935 27.591 20.0919 27.7103 19.7159C28.6023 16.9049 28.4534 13.8669 27.2908 11.1566C26.1282 8.4463 24.0294 6.24466 21.3778 4.95375C18.7262 3.66284 15.6988 3.36882 12.8483 4.12537C9.99791 4.88193 7.51473 6.63858 5.85231 9.07449ZM21.6233 26.9233C19.7773 27.8735 17.7076 28.3469 15.6052 28.2793C13.9255 28.2253 12.2888 27.828 10.7903 27.1264C10.9411 26.9892 11.0358 26.7913 11.0358 26.5714C11.0358 25.179 11.5889 23.8436 12.5735 22.8591C13.558 21.8745 14.8934 21.3214 16.2858 21.3214C17.6782 21.3214 19.0135 21.8745 19.9981 22.8591C20.9827 23.8436 21.5358 25.179 21.5358 26.5714C21.5358 26.6985 21.5674 26.8183 21.6233 26.9233ZM16.2858 16.7857C15.0629 16.7857 14.0715 15.7943 14.0715 14.5714C14.0715 13.3485 15.0629 12.3571 16.2858 12.3571C17.5087 12.3571 18.5001 13.3485 18.5001 14.5714C18.5001 15.7943 17.5087 16.7857 16.2858 16.7857ZM16.2858 18.2857C14.2344 18.2857 12.5715 16.6227 12.5715 14.5714C12.5715 12.52 14.2344 10.8571 16.2858 10.8571C18.3371 10.8571 20.0001 12.52 20.0001 14.5714C20.0001 16.6227 18.3371 18.2857 16.2858 18.2857Z" fill="#3D3D3D"/>
<circle r="1.14286" transform="matrix(-1 0 0 1 26.8571 23.4285)" fill="#DD0034"/>
</svg>
