<svg width="81" height="80" viewBox="0 0 81 80" fill="none" xmlns="http://www.w3.org/2000/svg">
<path fill-rule="evenodd" clip-rule="evenodd" d="M65.995 22.6864C70.151 28.7762 71.9778 36.1578 71.1417 43.4831C70.3056 50.8083 66.8625 57.5884 61.4411 62.5851C59.9696 63.9412 58.379 65.1415 56.6951 66.1753C56.6293 61.8151 54.8687 57.6475 51.7806 54.5593C48.6326 51.4114 44.3631 49.6429 39.9113 49.6429C35.4594 49.6429 31.1899 51.4114 28.042 54.5593C25.1685 57.4328 23.4444 61.2408 23.1656 65.269C22.5297 64.8296 21.9087 64.365 21.3041 63.8757C20.5375 63.2553 19.4131 63.3739 18.7927 64.1405C18.1722 64.9072 18.2908 66.0316 19.0574 66.652C25.4551 71.8293 33.5017 74.5326 41.7275 74.268C49.9534 74.0035 57.8096 70.7889 63.8615 65.2112C69.9133 59.6336 73.7568 52.0651 74.6901 43.8881C75.6234 35.711 73.5842 27.4711 68.9449 20.6732C64.3056 13.8753 57.3758 8.97302 49.4211 6.8617C41.4664 4.75039 33.0176 5.57093 25.6178 9.17346C18.2181 12.776 12.3611 18.9201 9.11655 26.4837C5.87201 34.0473 5.45645 42.5256 7.94577 50.3702C8.24406 51.3103 9.24792 51.8305 10.188 51.5322C11.128 51.2339 11.6482 50.23 11.3499 49.29C9.1199 42.2625 9.49217 34.6674 12.3987 27.8916C15.3053 21.1159 20.5522 15.6118 27.1812 12.3846C33.8101 9.15729 41.3788 8.42223 48.5049 10.3136C55.6309 12.205 61.8389 16.5966 65.995 22.6864ZM26.4882 67.2673C31.123 69.6703 36.3266 70.8684 41.6127 70.6985C45.8448 70.5624 49.9677 69.5546 53.7379 67.7747C53.3627 67.4474 53.1256 66.9657 53.1256 66.4286C53.1256 62.924 51.7334 59.5629 49.2552 57.0847C46.777 54.6066 43.4159 53.2143 39.9113 53.2143C36.4066 53.2143 33.0455 54.6066 30.5674 57.0847C28.0892 59.5629 26.697 62.924 26.697 66.4286C26.697 66.7318 26.6215 67.0173 26.4882 67.2673ZM39.9113 42.1429C43.0672 42.1429 45.6256 39.5845 45.6256 36.4286C45.6256 33.2727 43.0672 30.7143 39.9113 30.7143C36.7554 30.7143 34.197 33.2727 34.197 36.4286C34.197 39.5845 36.7554 42.1429 39.9113 42.1429ZM39.9113 45.7143C45.0396 45.7143 49.197 41.557 49.197 36.4286C49.197 31.3003 45.0396 27.1429 39.9113 27.1429C34.7829 27.1429 30.6256 31.3003 30.6256 36.4286C30.6256 41.557 34.7829 45.7143 39.9113 45.7143Z" fill="#3D3D3D"/>
<circle cx="13.4821" cy="58.5714" r="2.85714" fill="#DD0034"/>
</svg>
